<svg width="47" height="32" viewBox="0 0 47 32" fill="none" xmlns="http://www.w3.org/2000/svg">
<path d="M3.50746 0H43.4925C45.4567 0 47 1.54328 47 3.50746V28.0597C47 30.0239 45.4567 31.5672 43.4925 31.5672H3.50746C1.54328 31.5672 0 30.0239 0 28.0597V3.50746C0 1.54328 1.54328 0 3.50746 0ZM2.52537 7.71642H44.4746V3.50746C44.4746 2.94627 44.0537 2.52537 43.4925 2.52537H3.50746C2.94627 2.52537 2.52537 2.94627 2.52537 3.50746V7.71642ZM44.4746 10.2418H2.52537V28.0597C2.52537 28.6209 2.94627 29.0418 3.50746 29.0418H43.4925C44.0537 29.0418 44.4746 28.6209 44.4746 28.0597V10.2418Z" fill="#273BBE"/>
<path fill-rule="evenodd" clip-rule="evenodd" d="M9.11941 15.5731H18.8C20.4836 15.5731 20.4836 18.0985 18.8 18.0985H9.11941C7.43582 18.0985 7.43582 15.5731 9.11941 15.5731Z" fill="#273BBE"/>
<path fill-rule="evenodd" clip-rule="evenodd" d="M9.11941 20.7642H18.8C20.4836 20.7642 20.4836 23.2895 18.8 23.2895H9.11941C7.43582 23.2895 7.43582 20.7642 9.11941 20.7642Z" fill="#273BBE"/>
</svg>
