<svg width="186" height="55" viewBox="0 0 186 55" fill="none" xmlns="http://www.w3.org/2000/svg">
<rect width="186" height="55" rx="8" fill="#222222"/>
<path fill-rule="evenodd" clip-rule="evenodd" d="M42.522 22.3329C46.5715 24.6325 46.5715 30.468 42.5221 32.7677L20.9629 45.0111C16.9631 47.2826 12 44.3936 12 39.7937L12 15.3073C12 10.7075 16.963 7.81844 20.9629 10.0899L42.522 22.3329Z" fill="url(#paint0_linear)"/>
<mask id="mask0" mask-type="alpha" maskUnits="userSpaceOnUse" x="12" y="9" width="34" height="37">
<path fill-rule="evenodd" clip-rule="evenodd" d="M42.522 22.3329C46.5715 24.6325 46.5715 30.468 42.5221 32.7677L20.9629 45.0111C16.9631 47.2826 12 44.3935 12 39.7937L12 15.3073C12 10.7075 16.963 7.8184 20.9629 10.0898L42.522 22.3329Z" fill="white"/>
</mask>
<g mask="url(#mask0)">
<path fill-rule="evenodd" clip-rule="evenodd" d="M12 6.74411L32.5649 27.2157L11.7344 48.4965L12 6.74411Z" fill="url(#paint1_linear)"/>
<path fill-rule="evenodd" clip-rule="evenodd" d="M7.77109 2.52972L32.5625 27.2217L39.9332 20.1791L7.77109 2.52972Z" fill="url(#paint2_linear)"/>
<path fill-rule="evenodd" clip-rule="evenodd" d="M32.5658 27.217L43.8498 38.6084L10.1402 49.9999L32.5658 27.217Z" fill="url(#paint3_linear)"/>
</g>
<path d="M60.2671 21.8602V11.9071H63.0767C63.9425 11.9071 64.7082 12.0985 65.3735 12.4813C66.0389 12.8641 66.5516 13.4087 66.9116 14.1151C67.2762 14.8215 67.4608 15.6327 67.4653 16.5487V17.1844C67.4653 18.1233 67.283 18.9458 66.9185 19.6522C66.5584 20.3586 66.0412 20.9009 65.3667 21.2792C64.6968 21.6574 63.9152 21.8511 63.022 21.8602H60.2671ZM61.5796 12.9872V20.787H62.9604C63.9722 20.787 64.7583 20.4725 65.3188 19.8436C65.884 19.2147 66.1665 18.3192 66.1665 17.1571V16.576C66.1665 15.4458 65.8999 14.5686 65.3667 13.9442C64.8381 13.3153 64.0861 12.9963 63.1108 12.9872H61.5796ZM70.8628 21.8602H69.5503V11.9071H70.8628V21.8602ZM76.2017 17.4237C75.076 17.1001 74.2557 16.7037 73.7407 16.2343C73.2303 15.7603 72.9751 15.177 72.9751 14.4843C72.9751 13.7004 73.2873 13.0533 73.9116 12.5428C74.5405 12.0279 75.3563 11.7704 76.3589 11.7704C77.0425 11.7704 77.6509 11.9025 78.1841 12.1669C78.7218 12.4312 79.1366 12.7958 79.4282 13.2606C79.7244 13.7255 79.8726 14.2336 79.8726 14.785H78.5532C78.5532 14.1835 78.3618 13.7118 77.979 13.37C77.5962 13.0236 77.0562 12.8505 76.3589 12.8505C75.7118 12.8505 75.2059 12.994 74.8413 13.2811C74.4813 13.5637 74.3013 13.9579 74.3013 14.4637C74.3013 14.8693 74.4722 15.2134 74.814 15.496C75.1603 15.774 75.7459 16.0292 76.5708 16.2616C77.4002 16.494 78.0474 16.7515 78.5122 17.0341C78.9816 17.3121 79.328 17.6379 79.5513 18.0116C79.7791 18.3853 79.8931 18.8251 79.8931 19.3309C79.8931 20.1376 79.5786 20.7847 78.9497 21.2723C78.3208 21.7554 77.48 21.9969 76.4272 21.9969C75.7437 21.9969 75.1056 21.8671 74.5132 21.6073C73.9207 21.343 73.4627 20.983 73.1392 20.5272C72.8201 20.0715 72.6606 19.5542 72.6606 18.9755H73.98C73.98 19.577 74.201 20.0533 74.6431 20.4042C75.0897 20.7505 75.6844 20.9237 76.4272 20.9237C77.12 20.9237 77.6509 20.7824 78.02 20.4999C78.3892 20.2173 78.5737 19.8322 78.5737 19.3446C78.5737 18.857 78.4028 18.481 78.061 18.2167C77.7192 17.9478 77.0994 17.6835 76.2017 17.4237ZM82.894 17.9637V21.8602H81.5815V11.9071H85.2524C86.3416 11.9071 87.1938 12.1851 87.8091 12.7411C88.4289 13.2971 88.7388 14.0331 88.7388 14.9491C88.7388 15.9152 88.4357 16.6604 87.8296 17.1844C87.228 17.704 86.3644 17.9637 85.2388 17.9637H82.894ZM82.894 16.8905H85.2524C85.9543 16.8905 86.492 16.7264 86.8657 16.3983C87.2394 16.0656 87.4263 15.5871 87.4263 14.9628C87.4263 14.3703 87.2394 13.8964 86.8657 13.5409C86.492 13.1854 85.9793 13.0009 85.3276 12.9872H82.894V16.8905ZM98.0698 17.205C98.0698 18.1802 97.9058 19.0324 97.5776 19.7616C97.2495 20.4862 96.7847 21.0399 96.1831 21.4227C95.5815 21.8055 94.8797 21.9969 94.0776 21.9969C93.2938 21.9969 92.5988 21.8055 91.9927 21.4227C91.3866 21.0354 90.9149 20.4862 90.5776 19.7753C90.245 19.0598 90.0741 18.2326 90.0649 17.2938V16.576C90.0649 15.619 90.2313 14.7736 90.564 14.0399C90.8966 13.3062 91.366 12.7456 91.9722 12.3583C92.5828 11.9663 93.2801 11.7704 94.064 11.7704C94.8615 11.7704 95.5633 11.9641 96.1694 12.3514C96.7801 12.7343 97.2495 13.2925 97.5776 14.0262C97.9058 14.7554 98.0698 15.6053 98.0698 16.576V17.205ZM96.7642 16.5624C96.7642 15.382 96.5272 14.4774 96.0532 13.8485C95.5793 13.215 94.9162 12.8983 94.064 12.8983C93.2345 12.8983 92.5806 13.215 92.1021 13.8485C91.6281 14.4774 91.3843 15.3524 91.3706 16.4735V17.205C91.3706 18.3488 91.6099 19.2489 92.0884 19.9052C92.5715 20.5568 93.2345 20.8827 94.0776 20.8827C94.9253 20.8827 95.5815 20.5751 96.0464 19.9598C96.5112 19.34 96.7505 18.4537 96.7642 17.3007V16.5624ZM107.688 21.8602H106.369L101.358 14.1903V21.8602H100.039V11.9071H101.358L106.382 19.6112V11.9071H107.688V21.8602ZM111.427 21.8602H110.115V11.9071H111.427V21.8602ZM111.386 9.15906H112.917L111.085 11.1688H110.067L111.386 9.15906ZM117.128 20.1171L119.972 11.9071H121.408L117.716 21.8602H116.554L112.87 11.9071H114.298L117.128 20.1171ZM128.374 17.2596H124.06V20.787H129.071V21.8602H122.748V11.9071H129.002V12.9872H124.06V16.1864H128.374V17.2596ZM132.024 20.787H136.741V21.8602H130.705V11.9071H132.024V20.787ZM149.36 21.8602H148.041L143.03 14.1903V21.8602H141.71V11.9071H143.03L148.054 19.6112V11.9071H149.36V21.8602ZM159.347 17.205C159.347 18.1802 159.183 19.0324 158.855 19.7616C158.527 20.4862 158.062 21.0399 157.46 21.4227C156.859 21.8055 156.157 21.9969 155.355 21.9969C154.571 21.9969 153.876 21.8055 153.27 21.4227C152.664 21.0354 152.192 20.4862 151.855 19.7753C151.522 19.0598 151.351 18.2326 151.342 17.2938V16.576C151.342 15.619 151.509 14.7736 151.841 14.0399C152.174 13.3062 152.643 12.7456 153.25 12.3583C153.86 11.9663 154.557 11.7704 155.341 11.7704C156.139 11.7704 156.841 11.9641 157.447 12.3514C158.057 12.7343 158.527 13.2925 158.855 14.0262C159.183 14.7554 159.347 15.6053 159.347 16.576V17.205ZM158.042 16.5624C158.042 15.382 157.805 14.4774 157.331 13.8485C156.857 13.215 156.194 12.8983 155.341 12.8983C154.512 12.8983 153.858 13.215 153.379 13.8485C152.905 14.4774 152.662 15.3524 152.648 16.4735V17.205C152.648 18.3488 152.887 19.2489 153.366 19.9052C153.849 20.5568 154.512 20.8827 155.355 20.8827C156.203 20.8827 156.859 20.5751 157.324 19.9598C157.789 19.34 158.028 18.4537 158.042 17.3007V16.5624Z" fill="white"/>
<path d="M71.6313 41.0634C71.104 41.6949 70.3586 42.1864 69.395 42.538C68.4315 42.883 67.3638 43.0555 66.1919 43.0555C64.9614 43.0555 63.8807 42.7886 62.9497 42.2548C62.0252 41.7144 61.3091 40.9331 60.8013 39.911C60.3 38.8889 60.0428 37.6877 60.0298 36.3075V35.3407C60.0298 33.9214 60.2674 32.6942 60.7427 31.6591C61.2244 30.6174 61.9146 29.8231 62.813 29.2762C63.7179 28.7229 64.7759 28.4462 65.9868 28.4462C67.673 28.4462 68.9914 28.8498 69.9419 29.6571C70.8924 30.4579 71.4556 31.6265 71.6313 33.163H68.7798C68.6496 32.3492 68.3599 31.7535 67.9106 31.3759C67.4679 30.9983 66.856 30.8094 66.0747 30.8094C65.0786 30.8094 64.3201 31.1838 63.7993 31.9325C63.2785 32.6812 63.0148 33.7945 63.0083 35.2723V36.1805C63.0083 37.6714 63.2915 38.7977 63.8579 39.5594C64.4243 40.3212 65.2544 40.702 66.3481 40.702C67.4484 40.702 68.2329 40.4677 68.7017 39.9989V37.5477H66.0356V35.3895H71.6313V41.0634ZM73.3892 37.4794C73.3892 36.4312 73.591 35.4969 73.9946 34.6766C74.3983 33.8563 74.9777 33.2216 75.7329 32.7723C76.4946 32.3231 77.3768 32.0985 78.3794 32.0985C79.8052 32.0985 80.9673 32.5347 81.8657 33.4071C82.7707 34.2795 83.2752 35.4644 83.3794 36.9618L83.3989 37.6844C83.3989 39.3055 82.9465 40.6076 82.0415 41.5907C81.1366 42.5673 79.9224 43.0555 78.3989 43.0555C76.8755 43.0555 75.658 42.5673 74.7466 41.5907C73.8416 40.6141 73.3892 39.286 73.3892 37.6063V37.4794ZM76.2114 37.6844C76.2114 38.6871 76.4002 39.4553 76.7778 39.9891C77.1554 40.5165 77.6958 40.7802 78.3989 40.7802C79.0825 40.7802 79.6164 40.5197 80.0005 39.9989C80.3846 39.4716 80.5767 38.6317 80.5767 37.4794C80.5767 36.4963 80.3846 35.7346 80.0005 35.1942C79.6164 34.6538 79.076 34.3837 78.3794 34.3837C77.6893 34.3837 77.1554 34.6538 76.7778 35.1942C76.4002 35.7281 76.2114 36.5581 76.2114 37.6844ZM84.6978 37.4794C84.6978 36.4312 84.8996 35.4969 85.3032 34.6766C85.7069 33.8563 86.2863 33.2216 87.0415 32.7723C87.8032 32.3231 88.6854 32.0985 89.688 32.0985C91.1138 32.0985 92.2759 32.5347 93.1743 33.4071C94.0793 34.2795 94.5838 35.4644 94.688 36.9618L94.7075 37.6844C94.7075 39.3055 94.255 40.6076 93.3501 41.5907C92.4451 42.5673 91.231 43.0555 89.7075 43.0555C88.1841 43.0555 86.9666 42.5673 86.0552 41.5907C85.1502 40.6141 84.6978 39.286 84.6978 37.6063V37.4794ZM87.52 37.6844C87.52 38.6871 87.7088 39.4553 88.0864 39.9891C88.464 40.5165 89.0044 40.7802 89.7075 40.7802C90.3911 40.7802 90.925 40.5197 91.3091 39.9989C91.6932 39.4716 91.8853 38.6317 91.8853 37.4794C91.8853 36.4963 91.6932 35.7346 91.3091 35.1942C90.925 34.6538 90.3846 34.3837 89.688 34.3837C88.9979 34.3837 88.464 34.6538 88.0864 35.1942C87.7088 35.7281 87.52 36.5581 87.52 37.6844ZM96.0356 37.4989C96.0356 35.8778 96.4198 34.5725 97.188 33.5829C97.9627 32.5933 99.0044 32.0985 100.313 32.0985C101.472 32.0985 102.374 32.4956 103.018 33.2899L103.135 32.2938H105.694V42.5087C105.694 43.4331 105.482 44.2372 105.059 44.9208C104.642 45.6044 104.053 46.1252 103.292 46.4833C102.53 46.8413 101.638 47.0204 100.616 47.0204C99.841 47.0204 99.0858 46.8641 98.3501 46.5516C97.6144 46.2456 97.0578 45.8485 96.6802 45.3602L97.9302 43.6415C98.6333 44.4292 99.4862 44.8231 100.489 44.8231C101.237 44.8231 101.82 44.6213 102.237 44.2177C102.653 43.8205 102.862 43.2541 102.862 42.5184V41.952C102.211 42.6877 101.355 43.0555 100.293 43.0555C99.0239 43.0555 97.9953 42.5608 97.2075 41.5712C96.4263 40.5751 96.0356 39.2567 96.0356 37.6161V37.4989ZM98.8579 37.704C98.8579 38.661 99.05 39.413 99.4341 39.9598C99.8182 40.5002 100.346 40.7704 101.016 40.7704C101.875 40.7704 102.491 40.4481 102.862 39.8036V35.3602C102.484 34.7157 101.875 34.3934 101.036 34.3934C100.359 34.3934 99.8247 34.6701 99.4341 35.2235C99.05 35.7769 98.8579 36.6037 98.8579 37.704ZM110.85 42.8602H108.018V27.8602H110.85V42.8602ZM118.047 43.0555C116.498 43.0555 115.235 42.5803 114.258 41.6298C113.288 40.6792 112.803 39.413 112.803 37.8309V37.5575C112.803 36.4963 113.008 35.549 113.418 34.7157C113.829 33.8759 114.408 33.2313 115.157 32.7821C115.912 32.3264 116.771 32.0985 117.735 32.0985C119.18 32.0985 120.316 32.5542 121.143 33.4657C121.976 34.3772 122.393 35.6695 122.393 37.3427V38.495H115.665C115.756 39.1851 116.029 39.7385 116.485 40.1552C116.947 40.5718 117.53 40.7802 118.233 40.7802C119.32 40.7802 120.17 40.3863 120.782 39.5985L122.168 41.1512C121.745 41.7502 121.172 42.219 120.45 42.5575C119.727 42.8895 118.926 43.0555 118.047 43.0555ZM117.725 34.3837C117.165 34.3837 116.709 34.5725 116.358 34.9501C116.013 35.3277 115.792 35.868 115.694 36.5712H119.62V36.3466C119.607 35.7216 119.437 35.2398 119.112 34.9012C118.786 34.5562 118.324 34.3837 117.725 34.3837ZM132.1 37.8505V42.8602H129.17V28.6415H134.717C135.785 28.6415 136.722 28.8368 137.53 29.2274C138.344 29.618 138.969 30.1747 139.405 30.8973C139.841 31.6135 140.059 32.4305 140.059 33.3485C140.059 34.7417 139.581 35.842 138.624 36.6493C137.673 37.4501 136.355 37.8505 134.668 37.8505H132.1ZM132.1 35.4774H134.717C135.492 35.4774 136.081 35.2951 136.485 34.9305C136.895 34.566 137.1 34.0451 137.1 33.368C137.1 32.6714 136.895 32.1083 136.485 31.6786C136.075 31.2489 135.508 31.0275 134.786 31.0145H132.1V35.4774ZM144.874 42.8602H142.042V27.8602H144.874V42.8602ZM153.331 42.8602C153.2 42.6063 153.106 42.2906 153.047 41.913C152.364 42.6747 151.475 43.0555 150.381 43.0555C149.346 43.0555 148.487 42.7561 147.803 42.1571C147.126 41.5581 146.788 40.8029 146.788 39.8915C146.788 38.7717 147.201 37.9123 148.028 37.3134C148.861 36.7144 150.062 36.4117 151.631 36.4052H152.93V35.7997C152.93 35.3114 152.803 34.9208 152.549 34.6278C152.302 34.3348 151.908 34.1884 151.368 34.1884C150.892 34.1884 150.518 34.3023 150.245 34.5302C149.978 34.758 149.844 35.0705 149.844 35.4677H147.022C147.022 34.8557 147.211 34.2893 147.588 33.7684C147.966 33.2476 148.5 32.8407 149.19 32.5477C149.88 32.2483 150.655 32.0985 151.514 32.0985C152.816 32.0985 153.848 32.4273 154.61 33.0848C155.378 33.7359 155.762 34.6538 155.762 35.8387V40.4188C155.769 41.4214 155.909 42.1799 156.182 42.6942V42.8602H153.331ZM150.997 40.8973C151.413 40.8973 151.797 40.8062 152.149 40.6239C152.5 40.4351 152.761 40.1844 152.93 39.8719V38.0555H151.875C150.463 38.0555 149.711 38.5438 149.62 39.5204L149.61 39.6864C149.61 40.038 149.734 40.3277 149.981 40.5555C150.228 40.7834 150.567 40.8973 150.997 40.8973ZM161.719 38.8661L163.672 32.2938H166.7L162.452 44.5009L162.217 45.0575C161.586 46.4377 160.544 47.1278 159.092 47.1278C158.682 47.1278 158.265 47.066 157.842 46.9423V44.8036L158.272 44.8134C158.806 44.8134 159.203 44.732 159.463 44.5692C159.73 44.4065 159.939 44.1363 160.088 43.7587L160.42 42.8895L156.719 32.2938H159.756L161.719 38.8661Z" fill="white"/>
<defs>
<linearGradient id="paint0_linear" x1="47.1133" y1="20.0901" x2="33.4498" y2="20.0901" gradientUnits="userSpaceOnUse">
<stop stop-color="#FBDA09"/>
<stop offset="1" stop-color="#FFBC00"/>
</linearGradient>
<linearGradient id="paint1_linear" x1="13.7542" y1="45.6276" x2="29.0238" y2="43.496" gradientUnits="userSpaceOnUse">
<stop stop-color="#01E2FF"/>
<stop offset="1" stop-color="#01C4FF"/>
</linearGradient>
<linearGradient id="paint2_linear" x1="4.07931" y1="15.3378" x2="19.2371" y2="35.0752" gradientUnits="userSpaceOnUse">
<stop stop-color="#28D781"/>
<stop offset="1" stop-color="#02F076"/>
</linearGradient>
<linearGradient id="paint3_linear" x1="22.8188" y1="23.8542" x2="9.8617" y2="45.8168" gradientUnits="userSpaceOnUse">
<stop stop-color="#F2414E"/>
<stop offset="1" stop-color="#E02554"/>
</linearGradient>
</defs>
</svg>
