<svg width="519" height="398" viewBox="0 0 519 398" fill="none" xmlns="http://www.w3.org/2000/svg">
<g clip-path="url(#clip0)">
<path opacity="0.1" d="M45.0198 183.952C37.8457 186.3 31.1499 191.984 29.342 199.867C27.2902 208.925 32.0156 218.078 32.6899 227.366C34.8948 257.849 -5.15578 279.357 0.554795 309.314C2.82659 321.204 11.9999 329.969 21.044 337.181C35.5213 348.735 51.5817 358.938 69.3495 361.823C96.3432 366.198 124.552 353.326 150.795 361.464C171.958 368.024 188.152 387.261 209.172 394.358C225.175 399.764 242.408 397.631 259.047 395.446C267.995 394.272 277.398 392.911 284.634 387.088C298.107 376.248 298.92 354.845 307.931 339.505C321.834 315.827 352.319 311.202 377.883 315.803C403.447 320.403 428.255 331.747 454.153 330.788C459.687 330.592 465.364 329.772 470.185 326.834C476.053 323.259 480.023 316.967 483.529 310.737C505.376 271.92 517.548 226.767 518.414 181.312C518.562 173.457 518.309 165.262 514.899 158.309C510.594 149.534 501.985 144.296 493.376 140.759C472.772 132.315 450.011 130.949 429.814 121.365C410.334 112.13 394.551 95.9274 377.591 82.068C343.954 54.5363 304.416 35.4821 263.036 26.832C253.293 24.7953 243.182 23.3385 233.502 25.6915C222.349 28.4039 212.736 35.9326 204.093 44.0316C181.093 65.5969 162.665 92.1846 141.478 115.811C126.962 131.986 111.038 146.835 93.8945 160.182C86.0364 166.302 77.7145 173.567 68.9765 178.091C60.9845 182.227 53.4709 181.187 45.0198 183.952Z" fill="#7C83BF"/>
<path d="M485.231 199.479C474.709 197.275 454.789 193.139 432.244 188.558C398.865 181.777 390.156 207.444 390.156 207.444C390.156 220.517 346.633 274.747 346.633 274.747L333.652 245.61C335.647 245.918 337.686 245.781 339.621 245.207C347.054 242.984 350.727 234.583 351.918 226.91C353.695 215.355 352.071 203.53 347.245 192.885C345.031 188.026 342.161 183.454 340.382 178.422C332.878 157.307 345.877 132.866 338.014 111.833C334.767 103.154 328.291 96.1143 323.814 88.0057C313.771 69.771 314.201 46.9597 303.249 29.2474C292.975 12.6421 272.73 2.7987 253.336 4.99357C241.901 6.28749 233.727 10.3801 223.071 5.4728C214.075 1.34185 203.275 -3.27792 194.011 3.23001C186.11 8.77949 184.766 19.7107 180.452 28.3512C172.876 43.5284 154.903 53.4341 152.789 70.2694C152.268 74.4195 152.789 78.723 151.579 82.7294C148.126 94.0536 133.089 97.3986 126.929 107.506C120.898 117.397 126.991 132.354 138.211 135.205C142.994 136.422 148.14 135.684 152.918 136.973C157.399 138.171 161.747 142.369 160.972 146.754L151.034 148.566L122.438 151.748L118.014 152.026C118.014 152.026 118.014 152.103 118.014 152.242L117.775 152.27L118.009 152.462C118.009 152.802 118.009 153.334 118.009 154.034C109.96 157.192 96.9171 165.622 91.9909 187.733C90.8624 192.78 88.5819 197.496 85.3286 201.511C77.9967 210.569 65.8294 228.257 66.5086 245.236C67.4651 269.447 67.4651 279.132 99.4042 272.351C107.473 270.64 116.249 267.132 124.863 262.848C125.365 272.94 126.67 282.836 129.397 290.264C138.106 313.991 119.721 397.76 119.721 397.76H297.27C297.27 397.76 282.272 348.371 267.761 323.192C257.483 305.355 261.28 294.568 264.37 289.79C267.049 285.73 269.051 281.259 270.296 276.554C270.822 274.488 271.334 272.145 271.774 269.547C275.04 272.226 278.527 274.632 282.473 276.07C286.127 277.397 290.283 277.761 293.98 276.736C301.546 286.004 309.997 296.169 319.041 306.731C353.874 347.403 363.549 322.224 363.549 322.224C363.549 322.224 398.865 254.921 403.724 234.583C408.583 214.244 419.206 215.212 419.206 215.212C448.323 222.588 474.131 211.882 486.121 205.441C486.704 205.131 487.176 204.647 487.474 204.057C487.771 203.467 487.878 202.799 487.78 202.145C487.683 201.491 487.385 200.883 486.929 200.406C486.472 199.929 485.879 199.605 485.231 199.479ZM125.991 211.647C128.421 208.872 130.508 205.815 132.209 202.542H132.3C131.418 205.926 130.281 209.239 128.899 212.452C126.187 212.974 124.552 213.248 124.552 213.248L125.991 211.647Z" fill="url(#paint0_linear)"/>
<path d="M192.744 7.53828C184.934 13.0303 183.604 23.8321 179.352 32.4007C171.862 47.4198 154.095 57.2296 152.005 73.8876C151.488 77.9946 152.005 82.2549 150.809 86.2134C147.399 97.4226 132.529 100.734 126.417 110.736C120.453 120.521 126.479 135.325 137.57 138.147C142.31 139.355 147.384 138.627 152.11 139.897C156.835 141.167 161.412 145.806 159.848 150.44C158.686 153.89 154.587 155.855 153.841 159.42C153.191 162.488 155.276 165.411 157.294 167.797C159.858 170.817 162.594 173.788 166.023 175.767C175.454 181.211 187.22 177.943 198.096 177.583C211.254 177.192 224.152 181.301 234.669 189.233C237.678 191.519 240.509 194.16 242.374 197.452C248.453 208.177 242.704 221.639 243.995 233.902C245.459 247.838 255.847 259.024 266.336 268.287C270.525 271.987 274.945 275.634 280.206 277.546C285.467 279.458 291.756 279.352 296.18 275.94C300.829 272.356 302.445 266.006 302.474 260.126C302.503 254.246 301.269 248.394 301.565 242.524C301.709 239.648 302.756 236.231 305.554 235.666C306.955 235.383 308.376 235.953 309.653 236.596C318.577 241.091 327.138 249.894 336.704 247.038C344.055 244.838 347.704 236.524 348.862 228.928C350.616 217.496 349.01 205.8 344.241 195.267C342.051 190.475 339.215 185.936 337.455 180.952C330.061 160.015 342.902 135.818 335.135 115.015C331.926 106.427 325.522 99.4593 321.098 91.4322C311.15 73.3844 311.595 50.8079 300.762 33.2777C290.608 16.8401 270.587 7.10218 251.418 9.27309C240.112 10.5526 232.034 14.6069 221.498 9.75232C212.602 5.67408 201.927 1.07827 192.744 7.53828Z" fill="#222222"/>
<path d="M268.55 159.344C268.55 159.344 299.638 149.759 312.073 205.35L343.639 276.276C343.639 276.276 386.683 222.602 386.683 209.663C386.683 209.663 395.292 184.264 428.293 190.973C450.585 195.506 470.257 199.599 480.678 201.78C481.312 201.912 481.89 202.236 482.334 202.708C482.777 203.18 483.065 203.778 483.159 204.42C483.252 205.061 483.147 205.716 482.856 206.296C482.565 206.876 482.104 207.352 481.534 207.66C469.683 214.033 444.167 224.629 415.38 217.331C415.38 217.331 404.858 216.372 400.075 236.5C395.292 256.627 360.378 323.24 360.378 323.24C360.378 323.24 350.813 348.16 316.377 307.905C281.942 267.65 256.115 233.145 256.115 233.145L268.55 159.344Z" fill="#FCCDFF"/>
<path d="M268.55 166.053L264.427 179.658L260.352 193.115L252.289 219.727L214.027 226.915L201.558 218.946L186.287 209.184L173.12 200.078L153.765 186.66L137.982 153.593C137.982 153.593 142.334 152.821 155.902 150.349L174.809 146.884C187.865 144.488 192.801 134.75 194.308 124.839C196.111 112.974 192.983 100.878 192.983 100.878H241.288C241.288 100.878 246.693 109.025 245.846 123.095C245.581 127.258 244.854 131.38 243.68 135.382C239.433 150.114 249.022 155.031 255.527 156.627C257.286 157.074 259.085 157.342 260.898 157.427L268.55 166.053Z" fill="#FCCDFF"/>
<path opacity="0.1" d="M245.832 123.095C238.429 128.583 229.538 131.689 220.335 132.002C211.132 132.315 202.051 129.821 194.293 124.849C196.096 112.983 192.969 100.887 192.969 100.887H241.274C241.274 100.887 246.693 109.001 245.832 123.095Z" fill="black"/>
<path d="M218.81 130.59C243.903 130.59 264.246 110.207 264.246 85.0632C264.246 59.9195 243.903 39.5364 218.81 39.5364C193.716 39.5364 173.374 59.9195 173.374 85.0632C173.374 110.207 193.716 130.59 218.81 130.59Z" fill="#FCCDFF"/>
<path opacity="0.1" d="M268.55 166.053L264.427 179.658L260.352 193.115L252.289 219.727L214.027 226.915L201.558 218.946L186.287 209.184L173.12 200.078L153.765 186.66L137.982 153.593C137.982 153.593 142.334 152.821 155.902 150.349C165.468 177.018 177.568 186.947 188.487 190.168C195.016 192.085 201.118 191.605 205.982 190.887C212.234 189.884 218.627 190.211 224.745 191.845C239.428 195.938 247.157 188.102 251.217 178.158C254.221 170.802 255.216 162.286 255.522 156.593C257.281 157.04 259.08 157.308 260.893 157.393L268.55 166.053Z" fill="black"/>
<path d="M119.329 398C119.329 398 137.503 315.093 128.894 291.611C126.431 284.902 125.14 276.122 124.561 267.036C123.126 244.383 126.025 219.727 126.025 219.727C126.436 218.926 126.824 218.131 127.197 217.33C128.153 215.286 128.995 213.286 129.722 211.331C139.971 183.698 127.22 165.301 120.754 158.265C119.717 157.111 118.598 156.033 117.406 155.04L153.994 150.967C163.612 178.623 175.947 188.826 187.043 192.094C193.571 194.011 199.674 193.532 204.538 192.813C210.79 191.811 217.183 192.137 223.301 193.772C237.984 197.864 245.712 190.029 249.773 180.085C254.814 167.74 254.192 152.151 254.192 152.151L275.236 158.381C275.236 158.381 273.381 169.93 271.702 185.107C271.305 188.668 270.917 192.425 270.568 196.283C269.133 212.375 268.282 230.169 269.975 242.246C271.695 254.18 271.083 266.335 268.172 278.034C266.943 282.691 264.966 287.116 262.318 291.137C259.262 295.862 255.507 306.544 265.666 324.203C280.014 349.123 294.841 398.005 294.841 398.005L119.329 398Z" fill="#CC42D4"/>
<path d="M275.007 158.625C275.007 158.625 292.382 185.941 269.583 209.423C246.784 232.905 255.876 199.839 255.876 199.839L261.615 161.5L275.007 158.625Z" fill="#CC42D4"/>
<path opacity="0.1" d="M120.754 158.266C122.051 157.854 123.381 157.556 124.729 157.374C130.946 160.345 134.39 168.593 136.26 177.205C137.508 183.045 137.572 189.078 136.449 194.944C135.326 200.811 133.039 206.391 129.722 211.355C139.971 183.698 127.22 165.301 120.754 158.266Z" fill="black"/>
<path opacity="0.1" d="M270.578 196.288C260.367 196.963 247.028 195.765 247.028 195.765C248.826 204.008 245.115 210.449 241.288 214.647C239.825 216.271 237.979 217.5 235.918 218.223C233.857 218.945 231.649 219.138 229.494 218.783C207.427 214.949 173.871 235.076 173.871 235.076C173.871 235.076 149.871 254.5 124.561 267.051C123.126 244.397 126.025 219.741 126.025 219.741C126.436 218.941 126.824 218.145 127.197 217.345C137.422 215.428 174.574 207.856 181.983 196.738C183.083 195.085 184.852 193.537 187.052 192.099C193.38 187.997 203.505 184.781 213.133 182.433C225.115 179.488 237.525 178.699 249.783 180.104C255.045 180.708 260.252 181.726 265.355 183.147C267.584 183.765 269.736 184.431 271.711 185.126C277.125 187.043 281.229 189.185 281.942 191.466C282.903 194.534 277.446 195.837 270.578 196.288Z" fill="black"/>
<path opacity="0.1" d="M260.352 193.115C252.992 192.99 246.549 192.411 246.549 192.411C248.348 200.653 244.636 207.094 240.81 211.292C239.347 212.916 237.501 214.146 235.44 214.868C233.379 215.591 231.17 215.783 229.016 215.428C220.699 213.99 210.746 215.95 201.578 218.946L186.287 209.184L173.12 200.078C176.946 198.022 179.907 195.765 181.504 193.369C185.751 186.986 199.679 182.237 212.654 179.064C229.683 174.857 247.5 175.062 264.427 179.658L264.877 179.778C273.194 182.102 280.492 184.983 281.463 188.098C282.86 192.578 270.702 193.297 260.352 193.115Z" fill="black"/>
<path d="M124.25 154.968C124.25 154.968 99.232 157.518 91.9383 190.014C90.8107 195.066 88.5358 199.789 85.2903 203.816C78.0397 212.792 66.0494 230.27 66.719 247.048C67.6755 271.009 67.6755 280.594 99.2415 273.884C130.808 267.175 173.374 232.671 173.374 232.671C173.374 232.671 206.929 212.577 228.997 216.377C231.151 216.731 233.36 216.538 235.42 215.816C237.481 215.093 239.327 213.864 240.791 212.241C244.617 208.043 248.353 201.602 246.53 193.359C246.53 193.359 283.836 196.714 281.444 189.046C280.488 185.931 273.175 183.051 264.858 180.732C247.798 176.019 229.817 175.772 212.635 180.013C199.636 183.19 185.732 187.939 181.485 194.318C172.876 207.257 124.093 215.404 124.093 215.404L125.527 213.789C130.16 208.546 133.502 202.288 135.283 195.516C137.063 188.744 137.234 181.649 135.782 174.799C133.916 166.187 130.487 157.94 124.25 154.968Z" fill="#FCCDFF"/>
<path d="M117.655 154.791C117.655 154.791 116.22 212.778 137.742 204.152C159.265 195.526 142.525 154.791 142.525 154.791L132.96 153.833L117.655 154.791Z" fill="#CC42D4"/>
<path opacity="0.1" d="M182.064 85.8444C196.254 84.266 210.248 81.2523 223.832 76.8492C227.323 75.7182 231.116 74.2135 232.747 70.9259C233.167 70.0777 233.483 69.0713 234.31 68.6065C235.014 68.2087 235.884 68.3333 236.673 68.5154C241.336 69.6224 245.339 72.5505 249.783 74.3476C254.226 76.1448 259.884 76.5665 263.299 73.1927C267.33 69.2055 265.996 62.3525 263.342 57.3446C253.484 38.7122 230.393 30.2058 209.388 31.7489C206.437 31.9646 203.438 32.3624 200.779 33.6659C195.154 36.3735 192.074 42.3974 189.028 47.8558C183.102 58.442 151.77 89.2038 182.064 85.8444Z" fill="black"/>
<path d="M182.064 84.4067C196.254 82.8283 210.248 79.8146 223.832 75.4115C227.323 74.2805 231.116 72.7758 232.747 69.4883C233.167 68.64 233.483 67.6336 234.31 67.1688C235.014 66.771 235.884 66.8956 236.673 67.0777C241.336 68.1848 245.339 71.1128 249.783 72.91C254.226 74.7071 259.884 75.1288 263.299 71.755C267.33 67.7678 265.996 60.9148 263.342 55.9069C253.484 37.2745 230.393 28.7681 209.388 30.3113C206.437 30.5269 203.438 30.9247 200.779 32.2282C195.154 34.9358 192.074 40.9597 189.028 46.4182C183.102 57.0043 151.77 87.7661 182.064 84.4067Z" fill="#222222"/>
<path d="M490.344 135.143H393.255C392.081 135.143 390.956 135.61 390.127 136.441C389.297 137.272 388.831 138.4 388.831 139.576V196.604C388.831 197.78 389.297 198.907 390.127 199.738C390.956 200.57 392.081 201.037 393.255 201.037H490.344C491.517 201.037 492.643 200.57 493.472 199.738C494.302 198.907 494.768 197.78 494.768 196.604V139.576C494.768 138.4 494.302 137.272 493.472 136.441C492.643 135.61 491.517 135.143 490.344 135.143Z" fill="url(#paint1_linear)"/>
<path d="M487.828 135.919H395.756C392.61 135.919 390.06 138.474 390.06 141.627V194.558C390.06 197.71 392.61 200.265 395.756 200.265H487.828C490.974 200.265 493.525 197.71 493.525 194.558V141.627C493.525 138.474 490.974 135.919 487.828 135.919Z" fill="#273BBE"/>
<path d="M493.525 147.181H390.06V158.98H493.525V147.181Z" fill="#6C63FF"/>
<path opacity="0.3" d="M493.525 147.181H390.06V158.98H493.525V147.181Z" fill="black"/>
<path d="M483.71 167.735H399.869V173.457H483.71V167.735Z" fill="#D6D6E3"/>
<path d="M406.828 195.976C411.361 195.976 415.035 192.294 415.035 187.752C415.035 183.211 411.361 179.529 406.828 179.529C402.295 179.529 398.621 183.211 398.621 187.752C398.621 192.294 402.295 195.976 406.828 195.976Z" fill="#6C63FF"/>
<path opacity="0.3" d="M406.828 195.976C411.361 195.976 415.035 192.294 415.035 187.752C415.035 183.211 411.361 179.529 406.828 179.529C402.295 179.529 398.621 183.211 398.621 187.752C398.621 192.294 402.295 195.976 406.828 195.976Z" fill="black"/>
<path opacity="0.05" d="M121.003 215.653C121.003 215.653 111.916 220.489 110.409 226.398C108.903 232.306 107.133 233.385 107.133 233.385" fill="black"/>
<path opacity="0.05" d="M343.878 276.036C343.878 276.036 339.573 290.892 343.878 292.809V276.036Z" fill="black"/>
<path opacity="0.05" d="M129.134 292.809C129.134 292.809 166.439 300.956 194.179 284.183H206.135C206.135 284.183 242.006 302.394 259.224 297.122" fill="black"/>
<path d="M393.953 263.993L386.719 280.6L419.016 294.725L426.25 278.118L393.953 263.993Z" fill="#8ED16F"/>
<path d="M413.185 282.545C414.005 280.663 411.626 277.806 407.871 276.164C404.116 274.522 400.408 274.716 399.588 276.599C398.768 278.481 401.147 281.338 404.902 282.98C408.656 284.622 412.365 284.428 413.185 282.545Z" fill="#8ED16F"/>
<path opacity="0.1" d="M413.185 282.545C414.005 280.663 411.626 277.806 407.871 276.164C404.116 274.522 400.408 274.716 399.588 276.599C398.768 278.481 401.147 281.338 404.902 282.98C408.656 284.622 412.365 284.428 413.185 282.545Z" fill="black"/>
<path d="M441.316 204.828L434.082 221.434L466.379 235.559L473.613 218.952L441.316 204.828Z" fill="#8ED16F"/>
<path d="M460.548 223.38C461.368 221.498 458.989 218.64 455.234 216.998C451.479 215.356 447.771 215.551 446.951 217.433C446.131 219.316 448.51 222.173 452.265 223.815C456.019 225.457 459.728 225.262 460.548 223.38Z" fill="#8ED16F"/>
<path opacity="0.1" d="M460.548 223.38C461.368 221.498 458.989 218.64 455.234 216.998C451.479 215.356 447.771 215.551 446.951 217.433C446.131 219.316 448.51 222.173 452.265 223.815C456.019 225.457 459.728 225.262 460.548 223.38Z" fill="black"/>
<path d="M498.683 264.931L480.938 268.417L487.716 303.067L505.461 299.582L498.683 264.931Z" fill="#8ED16F"/>
<path d="M494.402 291.336C496.414 290.941 497.405 287.355 496.617 283.327C495.829 279.298 493.56 276.353 491.548 276.748C489.537 277.143 488.545 280.729 489.333 284.757C490.121 288.786 492.391 291.731 494.402 291.336Z" fill="#8ED16F"/>
<path opacity="0.1" d="M494.402 291.336C496.414 290.941 497.405 287.355 496.617 283.327C495.829 279.298 493.56 276.353 491.548 276.748C489.537 277.143 488.545 280.729 489.333 284.757C490.121 288.786 492.391 291.731 494.402 291.336Z" fill="black"/>
<path d="M434.841 345.284L427.607 361.891L459.903 376.015L467.137 359.409L434.841 345.284Z" fill="#8ED16F"/>
<path d="M454.082 363.838C454.902 361.956 452.523 359.098 448.768 357.456C445.013 355.814 441.305 356.009 440.485 357.891C439.665 359.774 442.044 362.631 445.799 364.273C449.553 365.915 453.262 365.72 454.082 363.838Z" fill="#8ED16F"/>
<path opacity="0.1" d="M454.082 363.838C454.902 361.956 452.523 359.098 448.768 357.456C445.013 355.814 441.305 356.009 440.485 357.891C439.665 359.774 442.044 362.631 445.799 364.273C449.553 365.915 453.262 365.72 454.082 363.838Z" fill="black"/>
<path d="M355.04 329.59L347.806 346.196L380.103 360.321L387.337 343.715L355.04 329.59Z" fill="#8ED16F"/>
<path d="M374.277 348.144C375.097 346.262 372.718 343.404 368.963 341.762C365.208 340.12 361.499 340.315 360.68 342.197C359.86 344.08 362.239 346.937 365.993 348.579C369.748 350.221 373.457 350.026 374.277 348.144Z" fill="#8ED16F"/>
<path opacity="0.1" d="M374.277 348.144C375.097 346.262 372.718 343.404 368.963 341.762C365.208 340.12 361.499 340.315 360.68 342.197C359.86 344.08 362.239 346.937 365.993 348.579C369.748 350.221 373.457 350.026 374.277 348.144Z" fill="black"/>
</g>
<defs>
<linearGradient id="paint0_linear" x1="277.125" y1="397.76" x2="277.125" y2="-4.90599e-06" gradientUnits="userSpaceOnUse">
<stop stop-color="#808080" stop-opacity="0.25"/>
<stop offset="0.54" stop-color="#808080" stop-opacity="0.12"/>
<stop offset="1" stop-color="#808080" stop-opacity="0.1"/>
</linearGradient>
<linearGradient id="paint1_linear" x1="104390" y1="30068.2" x2="104390" y2="21007.1" gradientUnits="userSpaceOnUse">
<stop stop-color="#808080" stop-opacity="0.25"/>
<stop offset="0.54" stop-color="#808080" stop-opacity="0.12"/>
<stop offset="1" stop-color="#808080" stop-opacity="0.1"/>
</linearGradient>
<clipPath id="clip0">
<rect width="518.447" height="398" fill="white"/>
</clipPath>
</defs>
</svg>
