<svg width="12" height="23" viewBox="0 0 12 23" fill="none" xmlns="http://www.w3.org/2000/svg">
<path d="M6 1.5C3.51472 1.5 1.5 3.51472 1.5 6V12C1.5 14.4853 3.51472 16.5 6 16.5C8.48528 16.5 10.5 14.4853 10.5 12V6C10.5 3.51472 8.48528 1.5 6 1.5ZM6 0C9.31371 0 12 2.68629 12 6V12C12 15.3137 9.31371 18 6 18C2.68629 18 0 15.3137 0 12V6C0 2.68629 2.68629 0 6 0Z" fill="#222222"/>
<path d="M5.25 4.5C5.25 4.08579 5.58579 3.75 6 3.75C6.41421 3.75 6.75 4.08579 6.75 4.5V8.5C6.75 8.91421 6.41421 9.25 6 9.25C5.58579 9.25 5.25 8.91421 5.25 8.5V4.5Z" fill="#222222"/>
<path d="M6.37211 22.1512C6.01247 22.3567 5.55433 22.2317 5.34882 21.8721C5.14332 21.5125 5.26826 21.0543 5.6279 20.8488L9.1279 18.8488C9.48754 18.6433 9.94568 18.7683 10.1512 19.1279C10.3567 19.4875 10.2317 19.9457 9.87211 20.1512L6.37211 22.1512Z" fill="#222222"/>
<path d="M6.37211 20.8488C6.73175 21.0543 6.8567 21.5125 6.65119 21.8721C6.44568 22.2317 5.98754 22.3567 5.6279 22.1512L2.1279 20.1512C1.76826 19.9457 1.64332 19.4875 1.84882 19.1279C2.05433 18.7683 2.51247 18.6433 2.87211 18.8488L6.37211 20.8488Z" fill="#222222"/>
</svg>
